<?xml version="1.0" standalone="no"?>
<!DOCTYPE svg PUBLIC "-//W3C//DTD SVG 20010904//EN"
 "http://www.w3.org/TR/2001/REC-SVG-20010904/DTD/svg10.dtd">
<svg version="1.0" xmlns="http://www.w3.org/2000/svg"
 width="2000.000000pt" height="2000.000000pt" viewBox="0 0 2000.000000 2000.000000"
 preserveAspectRatio="xMidYMid meet">

<g transform="translate(0.000000,2000.000000) scale(0.100000,-0.100000)"
fill="#000000" stroke="none">
<path d="M7367 18638 c-88 -10 -95 -14 -347 -160 -293 -170 -1172 -677 -1690
-976 -129 -74 -329 -190 -445 -257 -115 -67 -316 -183 -445 -257 -646 -372
-867 -502 -888 -521 -42 -39 -61 -90 -68 -184 -8 -109 5 -161 52 -213 26 -29
408 -254 1520 -896 817 -471 1481 -861 1477 -865 -4 -4 -197 -116 -428 -249
-231 -133 -476 -274 -545 -314 -69 -40 -147 -86 -175 -102 l-50 -28 50 -7 c90
-12 128 -27 277 -113 l148 -85 570 330 c314 181 574 329 579 329 17 0 291
-162 286 -169 -2 -4 -218 -131 -481 -282 -529 -304 -534 -308 -534 -399 l0
-48 128 -75 c138 -81 143 -86 171 -142 16 -33 43 -52 217 -152 109 -63 202
-118 206 -122 5 -4 -171 -110 -390 -236 -218 -126 -405 -234 -416 -241 -17
-11 -16 -14 15 -29 114 -58 116 -146 4 -200 -51 -25 -63 -27 -148 -23 -109 5
-167 29 -193 81 -9 17 -18 34 -20 36 -5 5 -118 -61 -131 -77 -7 -9 -13 -28
-13 -42 0 -25 -27 -42 -317 -210 -175 -101 -322 -183 -328 -183 -12 0 -1175
670 -1193 687 -10 10 116 87 647 394 l661 381 337 -195 c186 -108 356 -205
378 -216 64 -34 134 -48 231 -48 119 0 191 22 314 97 101 62 140 105 140 157
l0 30 -37 -36 c-44 -42 -200 -133 -258 -151 -65 -20 -280 -16 -338 7 -27 10
-189 99 -360 198 -172 100 -375 217 -452 261 -175 99 -198 117 -220 164 -10
21 -19 39 -20 41 -2 2 -169 -93 -810 -463 -88 -51 -227 -131 -310 -179 -157
-90 -213 -138 -232 -198 -6 -20 -10 -124 -9 -249 l1 -214 28 -48 c15 -26 45
-58 65 -72 20 -13 255 -150 522 -304 266 -154 486 -283 487 -288 2 -4 -138
-89 -310 -187 -433 -249 -417 -238 -417 -280 0 -19 7 -41 15 -50 18 -18 94
-31 124 -21 12 3 126 67 254 141 127 74 249 139 270 145 24 6 49 7 72 0 47
-13 355 -191 362 -209 8 -20 -8 -32 -177 -130 -168 -97 -194 -122 -171 -165 8
-16 120 -85 334 -208 314 -179 323 -184 377 -183 53 1 68 8 351 172 163 95
302 172 308 172 16 0 121 -60 121 -70 0 -4 -163 -102 -361 -216 -244 -141
-365 -216 -372 -231 -21 -46 1 -64 250 -208 222 -129 242 -138 298 -142 l60
-4 380 220 c327 189 382 218 400 209 11 -6 977 -564 2146 -1239 1170 -675
2149 -1235 2175 -1245 66 -23 221 -23 287 0 50 18 3672 2105 3731 2150 19 14
43 45 55 69 19 40 21 60 21 266 0 244 -4 264 -67 323 -15 15 -140 91 -278 171
-137 79 -371 214 -520 299 -1737 1003 -2180 1260 -2183 1266 -1 4 116 75 260
159 145 83 565 325 933 538 369 213 854 493 1078 622 225 130 405 239 400 243
-4 4 -30 15 -58 25 -99 35 -180 98 -216 168 -25 48 -36 176 -20 235 18 65 43
76 154 69 51 -4 151 -21 222 -38 72 -17 153 -31 182 -31 104 -1 132 52 70 134
-33 44 -25 39 -687 422 -543 314 -821 474 -995 574 -110 63 -297 171 -415 239
-118 69 -260 151 -315 183 -339 196 -634 366 -875 505 -151 87 -311 179 -355
205 -44 26 -143 83 -220 127 -77 45 -446 258 -820 474 -374 215 -754 435 -845
487 -91 52 -410 237 -710 410 -300 173 -648 375 -775 447 -126 73 -292 169
-368 213 -174 101 -236 117 -380 100z m-1886 -2185 c49 -17 875 -486 976 -555
91 -62 77 -94 -84 -186 -130 -74 -214 -97 -338 -89 -105 6 -156 27 -380 157
-401 232 -475 275 -593 342 -128 73 -192 120 -192 143 0 43 214 176 321 200
81 19 217 13 290 -12z m-611 -1049 c0 -2 -9 0 -20 6 -11 6 -20 13 -20 16 0 2
9 0 20 -6 11 -6 20 -13 20 -16z m70 -40 c0 -2 -13 2 -30 11 -16 9 -30 18 -30
21 0 2 14 -2 30 -11 17 -9 30 -18 30 -21z m70 -40 c0 -2 -13 2 -30 11 -16 9
-30 18 -30 21 0 2 14 -2 30 -11 17 -9 30 -18 30 -21z m70 -40 c0 -2 -13 2 -30
11 -16 9 -30 18 -30 21 0 2 14 -2 30 -11 17 -9 30 -18 30 -21z m1165 -659
c627 -356 1289 -732 1470 -835 427 -243 951 -540 2235 -1270 575 -327 1072
-605 1105 -619 79 -32 188 -39 274 -17 47 12 194 89 555 290 684 381 1639 913
2096 1168 422 235 440 245 425 231 -5 -6 -77 -48 -160 -95 -82 -48 -231 -133
-330 -190 -99 -57 -389 -225 -645 -373 -256 -147 -769 -444 -1140 -658 -371
-215 -698 -401 -725 -413 -102 -47 -261 -49 -359 -5 -49 21 -5936 3419 -5951
3434 -13 13 -141 85 1150 -648z m7380 -900 c75 -41 87 -55 83 -92 -3 -25 -65
-63 -743 -455 -407 -235 -758 -433 -779 -439 -52 -14 -98 -4 -174 38 -69 38
-91 69 -74 99 6 11 347 213 759 451 l748 433 59 0 c49 0 70 -6 121 -35z m855
-110 c0 -2 -13 -11 -30 -20 -38 -19 -40 -11 -2 9 31 17 32 18 32 11z m-7097
-1181 c150 -86 277 -161 284 -168 9 -8 -26 -33 -145 -102 -86 -50 -438 -254
-782 -455 -344 -200 -648 -375 -677 -389 -32 -16 -52 -32 -52 -42 -1 -10 -9
-18 -19 -18 -9 0 -132 66 -272 148 l-255 147 0 39 0 40 125 73 c69 40 130 73
135 73 6 0 62 -30 125 -67 161 -95 169 -94 365 17 83 47 158 93 167 102 23 23
25 133 3 165 -8 12 -40 36 -70 53 -30 17 -55 35 -55 39 0 5 833 497 848 500 2
1 125 -69 275 -155z m3008 -341 c378 -218 658 -374 692 -385 79 -24 200 -24
275 1 32 11 121 56 197 100 118 67 142 78 160 69 45 -24 3121 -1800 3127
-1807 6 -5 -214 -135 -1007 -592 -121 -69 -727 -419 -1346 -776 -619 -358
-1143 -656 -1164 -663 -50 -16 -160 -17 -209 0 -45 14 -4199 2411 -4200 2423
-1 5 183 114 408 244 445 257 464 265 537 228 19 -10 282 -160 584 -335 303
-175 565 -325 584 -335 24 -12 49 -16 85 -13 43 4 87 26 279 137 l229 133 201
-116 c257 -148 234 -133 219 -148 -19 -19 -15 -102 6 -120 9 -9 54 -37 100
-63 45 -26 82 -50 82 -53 -1 -4 -201 -122 -446 -262 -244 -140 -453 -263 -464
-273 -16 -14 -20 -31 -20 -77 0 -55 2 -61 33 -83 17 -13 437 -257 932 -543
890 -513 901 -519 955 -519 54 0 65 6 495 254 242 140 930 538 1530 884 599
346 1093 634 1097 640 12 20 9 122 -4 139 -7 8 -425 253 -928 543 -817 472
-920 529 -966 533 -36 3 -61 -1 -85 -13 -19 -10 -341 -195 -716 -412 -375
-216 -688 -396 -696 -399 -7 -2 -76 31 -153 76 -76 44 -148 80 -159 80 -20 -1
-100 -41 -225 -115 -36 -21 -94 -55 -130 -75 -36 -20 -94 -54 -129 -74 l-64
-37 -286 165 c-327 187 -762 439 -836 483 -60 35 -84 73 -92 145 -3 29 -13 66
-22 81 -19 34 -8 27 -571 347 -245 139 -449 256 -453 260 -5 4 38 34 94 66 57
32 121 70 143 82 23 13 56 32 74 43 l32 18 180 -104 c99 -58 185 -105 192
-105 7 0 33 11 57 25 23 14 47 25 51 25 18 0 617 -352 643 -378 20 -20 30 -44
37 -84 10 -62 28 -105 56 -129 19 -16 666 -391 709 -411 20 -9 49 5 226 107
112 65 212 125 222 133 9 8 17 29 17 47 0 18 -8 38 -17 47 -10 8 -357 210
-770 448 -414 239 -750 437 -745 441 9 10 715 418 723 419 3 0 291 -165 640
-367z m-1361 89 c0 -70 -17 -112 -46 -112 -22 0 -20 137 3 162 32 35 43 23 43
-50z m-110 -67 c0 -63 -3 -77 -22 -95 -12 -11 -25 -20 -30 -20 -4 0 -8 36 -8
79 0 71 2 82 22 95 12 9 26 16 30 16 5 0 8 -34 8 -75z m-110 -60 c0 -62 -4
-79 -20 -95 -33 -33 -40 -24 -40 55 0 62 4 79 20 95 33 33 40 24 40 -55z
m-129 -158 c-29 -30 -41 -13 -41 59 0 58 3 68 28 92 l27 27 3 -79 c2 -68 0
-82 -17 -99z m3869 -771 c-13 -11 -446 -263 -787 -457 l-112 -64 -1 -66 c0
-61 2 -67 25 -77 23 -11 38 -4 160 66 74 42 135 83 135 90 0 9 11 12 33 10 40
-4 43 -29 5 -39 -25 -6 -278 -146 -278 -154 0 -6 139 -85 151 -85 7 0 74 36
151 81 l138 81 0 104 0 104 43 26 c235 139 509 294 518 294 33 0 -22 -36 -261
-175 l-265 -153 -5 -108 -5 -109 -125 -72 c-69 -39 -133 -77 -144 -83 -16 -10
-10 -17 60 -56 l78 -45 145 84 146 84 5 144 5 143 243 140 c215 124 267 148
249 119 -3 -5 -111 -69 -241 -143 l-235 -135 -1 -142 0 -141 -142 -83 c-79
-45 -144 -83 -146 -84 -1 -1 60 -38 137 -82 l139 -80 86 50 86 50 0 71 1 71
361 208 c199 114 368 206 377 205 19 -5 -14 -26 -221 -146 -84 -48 -231 -133
-325 -188 l-173 -99 0 -70 0 -71 -67 -39 c-102 -58 -100 -55 -56 -82 21 -12
45 -23 53 -23 8 0 76 36 150 79 l135 79 5 73 5 72 299 174 c165 95 306 173
313 173 30 0 5 -19 -120 -91 -72 -42 -207 -120 -299 -174 l-167 -97 -3 -71 -3
-72 -134 -77 c-155 -89 -161 -94 -132 -103 19 -6 21 -14 21 -88 l0 -82 -77
-46 c-43 -25 -124 -72 -180 -105 l-103 -59 0 -70 0 -71 -109 -63 c-60 -34
-112 -69 -115 -77 -3 -8 -19 -14 -36 -14 -23 0 -30 4 -30 20 0 13 7 20 20 20
12 0 70 28 130 63 l109 62 1 72 0 71 183 105 182 105 3 64 c3 61 1 65 -23 76
-31 14 -6 27 -325 -158 -135 -78 -252 -151 -261 -162 -18 -24 -62 -21 -67 4
-2 12 7 19 30 26 26 7 389 210 540 302 l30 18 -44 26 c-25 14 -48 26 -53 26
-4 0 -30 -13 -57 -30 -26 -16 -55 -30 -63 -30 -8 0 -38 14 -66 32 l-52 31 -51
-28 c-28 -15 -58 -36 -67 -47 -10 -13 -25 -19 -45 -16 -38 4 -38 30 1 39 17 3
58 22 92 42 34 21 64 37 68 37 4 0 33 -15 64 -34 l58 -34 48 28 47 28 -73 42
c-41 24 -89 51 -106 61 -18 11 -48 28 -66 38 l-32 20 -154 -88 c-85 -49 -165
-98 -177 -110 -14 -13 -33 -21 -46 -19 -28 4 -30 31 -3 36 11 2 95 47 186 100
l167 96 -76 44 c-74 42 -78 43 -108 29 -71 -34 -468 -269 -479 -283 -13 -19
-60 -15 -60 4 0 8 16 19 35 26 19 7 91 45 160 85 69 40 173 101 232 134 58 34
104 65 102 69 -2 3 -36 25 -75 47 l-70 41 -88 -50 -87 -50 -121 0 -121 0 -143
-83 -144 -82 -3 -62 c-3 -57 -1 -63 22 -78 24 -16 28 -14 190 79 91 53 174
104 185 115 12 12 27 17 41 14 31 -8 20 -33 -20 -47 -43 -16 -336 -184 -333
-192 1 -4 89 -57 196 -119 l195 -112 98 58 c54 32 104 65 110 74 15 21 69 17
69 -5 0 -8 -11 -17 -25 -20 -27 -5 -219 -111 -220 -121 0 -3 63 -42 140 -85
l140 -79 0 -81 0 -82 -197 -113 c-226 -131 -213 -125 -213 -107 0 8 30 31 68
52 37 21 124 72 195 113 l127 75 0 61 0 62 -143 83 c-79 45 -147 82 -150 82
-4 0 -109 -59 -233 -131 -144 -83 -230 -127 -236 -121 -6 6 71 56 211 136 122
70 221 131 221 135 0 4 -46 34 -102 66 -57 32 -144 83 -194 112 l-91 54 -176
-102 -177 -102 0 -71 0 -71 -86 -49 -87 -49 27 -14 c22 -11 25 -17 16 -28 -10
-12 -15 -11 -33 5 -11 11 -25 20 -29 20 -9 0 -534 -300 -573 -326 -22 -16 -45
-18 -45 -5 0 8 305 189 523 311 31 17 57 35 57 38 0 4 -36 27 -80 52 l-80 45
0 80 1 80 236 135 c129 74 241 143 247 153 6 9 23 17 37 17 31 0 48 -28 21
-36 -31 -9 -104 -48 -314 -169 l-208 -120 0 -61 0 -62 87 -49 87 -50 81 47 80
46 5 73 5 73 174 101 c165 96 173 102 152 115 -18 13 -21 24 -21 93 l0 78 48
27 c26 15 95 56 155 91 l107 63 121 0 122 0 73 41 c73 40 74 41 54 57 -19 15
-21 26 -18 97 l3 79 395 228 c217 125 418 241 445 257 53 32 103 44 75 17z
m-5504 -71 c71 -30 54 -45 -244 -217 l-274 -158 -65 36 c-35 20 -61 40 -56 44
10 10 502 295 523 303 28 10 80 7 116 -8z m5932 -167 c-3 -7 -55 -42 -116 -78
l-112 -65 0 -66 c0 -77 0 -78 -115 -140 -44 -24 -91 -54 -104 -67 -15 -15 -32
-22 -50 -20 -33 4 -34 31 -1 38 14 3 73 32 132 65 l108 60 0 72 0 71 123 71
c126 73 142 80 135 59z m187 -108 c-3 -5 -35 -26 -71 -46 -36 -20 -74 -45 -84
-56 -20 -22 -65 -21 -65 0 0 8 16 19 35 26 19 7 62 29 95 49 57 34 103 48 90
27z m-6234 -130 c28 -16 23 -29 -16 -46 -28 -11 -44 -12 -75 -4 -49 13 -56 24
-28 44 26 18 90 21 119 6z m4539 -75 c0 -75 0 -76 -32 -93 -17 -9 -41 -27 -53
-39 -25 -26 -47 -29 -64 -10 -13 16 4 37 30 37 10 0 34 9 53 21 36 21 36 22
36 90 0 55 3 69 15 69 12 0 15 -15 15 -75z m2115 -44 c-2 -5 -124 -77 -270
-162 l-265 -153 0 -141 0 -140 -172 -99 c-95 -55 -246 -142 -335 -194 l-163
-94 0 -106 0 -107 -95 -53 c-53 -29 -104 -62 -114 -73 -21 -23 -66 -23 -66 0
0 7 14 18 31 25 17 6 75 36 128 66 l96 55 0 106 0 106 328 189 327 189 5 143
5 144 274 158 c242 140 305 171 286 141z m-2823 -78 c68 -40 118 -74 118 -83
0 -20 -433 -270 -467 -270 -36 0 -243 121 -243 142 0 16 54 49 365 227 49 28
94 51 99 51 6 0 63 -30 128 -67z m2948 15 c0 -7 -38 -35 -84 -61 -80 -45 -85
-50 -88 -85 -3 -35 -7 -39 -101 -94 -55 -31 -109 -66 -121 -77 -26 -24 -49
-27 -65 -7 -10 12 -8 17 8 25 11 6 25 11 32 11 7 0 59 27 115 61 98 57 103 62
106 97 3 34 8 39 93 89 96 56 105 60 105 41z m171 -118 c-13 -11 -78 -51 -145
-89 -66 -38 -206 -119 -311 -179 l-190 -111 -5 -73 -5 -73 -289 -167 c-159
-91 -293 -173 -298 -182 -11 -20 -57 -21 -65 -1 -7 19 -4 23 27 28 14 3 106
52 205 109 99 58 230 133 292 169 l112 64 1 71 0 71 328 191 c180 104 336 190
347 191 19 0 18 -1 -4 -19z m139 -58 c0 -4 -151 -95 -335 -201 l-335 -193 0
-72 -1 -71 -737 -424 c-405 -234 -743 -433 -750 -444 -18 -24 -57 -19 -57 8 0
13 8 21 23 23 13 2 137 69 275 149 139 80 396 228 572 330 176 102 395 228
487 281 l168 97 0 71 0 70 333 192 c182 106 338 192 345 192 6 0 12 -4 12 -8z
m120 -71 c0 -4 -76 -52 -169 -105 -93 -53 -172 -104 -175 -112 -8 -20 -61 -15
-61 6 0 8 14 19 30 25 17 5 102 51 190 102 154 89 185 103 185 84z m-7999 -20
l23 -18 -25 -13 c-35 -19 -106 -17 -127 4 -16 16 -16 18 2 32 28 20 99 18 127
-5z m-326 -165 c39 -17 44 -30 16 -46 -41 -21 -141 -7 -141 21 0 10 55 38 78
39 7 0 28 -7 47 -14z m4343 -298 c3 -13 -3 -18 -20 -19 -13 0 -70 -28 -128
-62 l-105 -62 -5 -73 -5 -74 -123 -70 c-111 -64 -145 -78 -128 -49 3 5 56 37
116 72 l110 62 0 71 0 71 109 63 c60 34 112 70 115 78 8 21 60 14 64 -8z m857
-68 c0 -8 -10 -16 -23 -18 -12 -2 -52 -21 -89 -43 -37 -21 -73 -39 -80 -39
-28 0 -10 19 45 48 31 17 65 40 75 52 21 25 72 25 72 0z m-806 -19 c18 -12 7
-41 -16 -41 -10 0 -52 -19 -93 -43 l-75 -43 -5 -73 -5 -74 -119 -68 c-66 -38
-124 -69 -129 -69 -27 0 12 31 109 86 l109 63 5 72 5 73 70 42 c39 23 81 52
93 63 26 23 31 24 51 12z m-488 -141 c27 -15 24 -28 -8 -36 -16 -4 -63 -27
-105 -51 -73 -42 -107 -52 -90 -27 4 5 36 26 72 46 36 20 73 46 82 57 20 24
23 25 49 11z m1292 -130 c170 -98 216 -129 214 -144 -3 -24 -442 -280 -468
-273 -11 3 -118 62 -239 132 -161 93 -220 132 -218 144 5 24 437 272 469 268
14 -2 123 -59 242 -127z m364 85 c7 -20 4 -23 -27 -28 -14 -3 -52 -21 -85 -41
-56 -34 -103 -48 -91 -27 4 5 35 25 70 45 35 20 66 43 70 51 7 20 55 19 63 0z
m362 -209 c10 -12 8 -17 -8 -25 -11 -6 -25 -11 -31 -11 -6 0 -71 -35 -145 -77
l-135 -78 0 -71 0 -70 -97 -56 -98 -56 -62 34 -62 35 -173 -101 c-164 -95
-198 -111 -198 -92 0 4 84 56 186 116 l186 107 60 -36 60 -35 84 47 84 48 0
71 0 70 134 78 c74 43 142 87 152 97 20 23 47 25 63 5z m-1575 -143 c-37 -28
-93 -53 -99 -44 -7 12 96 72 109 64 5 -3 0 -12 -10 -20z m1810 11 c28 -11 17
-33 -21 -44 -21 -5 -94 -43 -163 -83 l-125 -72 -5 -73 -5 -74 -260 -150 c-262
-152 -301 -172 -294 -149 3 7 124 81 269 165 l265 152 5 74 5 73 134 78 c74
42 138 84 143 93 9 17 26 20 52 10z m-273 -30 c10 -13 10 -17 -2 -25 -8 -5
-20 -9 -27 -9 -7 0 -40 -15 -73 -32 l-59 -33 0 -72 0 -72 -77 -44 c-43 -24
-165 -94 -270 -155 -106 -62 -201 -112 -210 -112 -30 0 2 22 182 125 94 54
211 122 262 152 l92 54 3 71 3 72 51 30 c28 17 59 39 68 49 21 21 40 22 57 1z
m-1347 -73 c6 -9 -83 -61 -104 -61 -20 0 8 28 49 50 41 22 48 23 55 11z m120
-70 c8 -12 -83 -63 -103 -58 -10 2 2 15 33 35 54 34 62 37 70 23z m129 -68 c7
-7 -84 -63 -103 -63 -22 0 -8 19 33 44 44 26 59 31 70 19z m120 -70 c8 -7 -81
-63 -100 -63 -25 0 -12 19 30 43 45 27 60 31 70 20z"/>
<path d="M10402 10373 c-193 -111 -220 -130 -205 -141 9 -7 61 -37 114 -67 70
-40 102 -53 116 -48 33 13 433 247 433 253 0 7 -214 130 -226 130 -5 0 -109
-57 -232 -127z m274 26 c19 -11 34 -26 34 -32 0 -7 -66 -50 -147 -96 l-146
-83 -44 21 c-25 12 -43 27 -41 33 4 11 286 177 302 178 5 0 24 -9 42 -21z"/>
<path d="M10495 10325 c-71 -41 -131 -79 -133 -83 -1 -5 10 -15 27 -21 27 -12
37 -8 165 66 134 77 136 78 115 96 -12 9 -26 17 -33 17 -6 0 -69 -34 -141 -75z"/>
<path d="M10533 9367 c-117 -67 -211 -126 -210 -131 4 -11 428 -256 444 -256
16 0 436 244 440 256 4 12 -418 254 -443 254 -10 -1 -114 -56 -231 -123z m365
-24 c142 -81 174 -102 167 -113 -10 -16 -284 -170 -302 -169 -24 1 -296 161
-297 174 0 13 273 174 297 174 10 1 70 -29 135 -66z"/>
<path d="M10635 9323 c-71 -41 -134 -78 -138 -83 -9 -8 245 -160 268 -160 13
0 251 133 268 150 8 7 -54 46 -223 143 l-45 25 -130 -75z"/>
<path d="M16690 16186 c-84 -18 -182 -55 -245 -93 -34 -21 -70 -33 -110 -37
-248 -28 -405 -320 -299 -556 26 -58 93 -133 142 -159 21 -11 22 -10 22 35 0
126 52 355 96 422 l17 26 18 -51 c48 -141 219 -293 399 -354 41 -14 100 -23
163 -27 l97 -5 0 -109 c0 -84 4 -117 16 -138 19 -32 63 -60 93 -60 20 0 21 5
21 99 0 98 1 100 31 130 99 99 259 38 259 -99 0 -131 -143 -262 -247 -226 -23
7 -23 6 -23 -68 0 -42 3 -76 6 -76 3 0 38 17 78 38 46 24 97 63 146 112 208
208 255 526 118 798 -20 42 -36 78 -33 80 8 8 80 -21 112 -44 41 -31 90 -132
103 -214 14 -91 13 -160 -6 -440 -16 -227 -16 -252 -1 -340 42 -250 211 -430
454 -484 260 -58 494 65 510 269 5 56 2 71 -24 127 -37 77 -86 128 -224 235
-202 156 -241 231 -254 495 -14 263 -45 359 -149 464 -87 87 -194 137 -321
150 -81 8 -196 -17 -259 -56 -26 -17 -49 -30 -52 -30 -4 0 -34 21 -68 46 -79
60 -156 98 -248 124 -95 27 -251 34 -338 16z"/>
<path d="M16270 15550 c-21 -21 -28 -70 -10 -70 15 0 90 51 90 61 0 9 -33 29
-49 29 -6 0 -20 -9 -31 -20z"/>
<path d="M2315 15543 c-66 -35 -881 -506 -893 -516 -8 -6 -22 -28 -33 -48 -24
-47 -27 -170 -5 -192 14 -14 1320 -772 1350 -783 9 -3 82 33 178 88 89 51 166
94 169 96 11 5 341 -186 367 -212 17 -16 28 -46 38 -96 8 -44 23 -85 37 -104
15 -18 88 -68 179 -121 l155 -89 -5 -47 -4 -47 108 -61 c153 -87 134 -91 474
106 l275 159 0 39 c0 39 0 39 -100 97 -55 32 -115 60 -132 64 -35 7 -93 -18
-233 -99 -182 -106 -342 -197 -346 -197 -3 0 -60 32 -127 71 -237 138 -240
142 -253 240 -13 103 -2 94 -356 295 -87 49 -158 91 -158 94 0 3 42 29 93 58
96 55 107 61 222 128 38 23 86 49 105 59 l34 18 63 -34 62 -34 33 19 c84 48
117 106 118 203 0 58 -2 63 -32 86 -42 31 -1334 777 -1345 777 -4 -1 -21 -8
-38 -17z m848 -901 c15 -17 4 -25 -206 -146 -187 -108 -226 -127 -246 -119
-13 4 -26 13 -28 18 -4 12 422 263 448 264 9 1 23 -7 32 -17z m-214 -6 c10
-11 -17 -30 -144 -105 -152 -89 -184 -101 -215 -81 -21 13 -16 16 150 114 144
84 187 99 209 72z m1611 -849 c41 -23 75 -47 74 -52 0 -6 -12 -16 -26 -24 -24
-14 -30 -11 -112 34 -82 46 -101 67 -73 78 31 13 68 4 137 -36z m-125 -69 c79
-45 90 -65 44 -82 -21 -7 -39 -1 -107 39 -78 44 -98 67 -69 78 30 13 63 4 132
-35z m-121 -71 c38 -23 71 -48 73 -54 3 -7 -7 -18 -22 -25 -29 -13 -59 -1
-164 65 -43 28 -44 30 -26 43 31 23 66 15 139 -29z m-121 -73 c42 -24 77 -49
77 -54 0 -11 -33 -30 -53 -30 -19 0 -177 90 -177 101 0 12 32 28 55 29 11 0
55 -21 98 -46z m-123 -70 c44 -26 80 -50 80 -55 0 -11 -34 -29 -56 -29 -21 0
-174 88 -174 100 0 12 31 29 53 30 9 0 53 -21 97 -46z"/>
<path d="M16290 15371 c-15 -29 -12 -46 10 -66 40 -37 95 19 63 64 -18 26 -59
27 -73 2z"/>
<path d="M16682 15358 c-20 -20 -15 -66 9 -78 16 -9 26 -8 45 5 41 27 27 85
-21 85 -12 0 -26 -5 -33 -12z"/>
<path d="M16419 14540 c-82 -43 -217 -204 -307 -365 -28 -49 -64 -103 -81
-120 -16 -16 -41 -55 -55 -85 -26 -57 -54 -215 -44 -242 8 -20 608 -342 618
-331 11 13 416 602 510 743 140 210 222 299 311 339 l40 18 -59 17 c-91 25
-151 22 -198 -12 -101 -74 -274 -283 -366 -443 l-43 -75 -50 8 c-83 13 -434
58 -450 58 -17 0 13 54 113 204 70 104 201 252 246 275 14 8 26 18 26 23 0 4
-39 8 -87 8 -66 -1 -97 -6 -124 -20z"/>
<path d="M5324 13427 c-71 -18 -141 -62 -160 -99 -20 -39 -13 -92 18 -125 24
-26 108 -73 129 -73 7 0 81 40 167 90 l154 90 29 -21 c16 -11 29 -25 29 -30 0
-6 5 -7 11 -3 19 11 1 66 -33 101 -64 66 -229 99 -344 70z"/>
<path d="M17080 13209 c-87 -108 -279 -293 -331 -320 -53 -26 -143 -35 -204
-20 -62 16 -155 60 -309 148 -70 41 -130 73 -132 71 -1 -2 0 -66 4 -143 5
-104 4 -152 -6 -187 -10 -35 -11 -64 -4 -107 5 -33 5 -90 0 -128 -24 -199 -72
-934 -83 -1273 -3 -96 -8 -209 -10 -250 -7 -123 -6 -821 1 -870 3 -25 109
-349 233 -720 125 -371 267 -799 316 -950 48 -151 93 -279 99 -283 36 -26 303
23 369 67 l32 22 -3 85 c-1 46 -16 275 -33 509 -51 732 -65 849 -119 1012 -31
93 -91 218 -135 283 l-27 39 62 546 c66 579 77 653 80 535 1 -38 4 -81 5 -95
1 -14 6 -74 9 -135 11 -185 43 -631 51 -700 19 -176 29 -245 45 -350 22 -135
42 -300 65 -550 9 -93 36 -352 60 -575 24 -223 56 -533 69 -690 14 -157 28
-303 30 -325 l4 -40 -21 39 c-64 114 -107 161 -107 118 0 -29 -43 -59 -114
-81 -118 -36 -236 -38 -236 -4 0 37 -26 0 -55 -80 -57 -151 -164 -279 -389
-460 -164 -132 -196 -168 -203 -230 -8 -70 20 -151 60 -176 115 -71 346 -64
513 15 80 38 153 111 243 242 97 143 115 161 216 208 44 21 83 40 87 42 12 6
-22 -99 -49 -153 -90 -179 -172 -282 -339 -426 -50 -43 -106 -101 -123 -127
-27 -43 -31 -59 -33 -129 -3 -93 6 -109 83 -149 133 -67 361 -51 515 37 92 52
180 162 235 293 25 60 49 95 103 153 69 74 70 76 74 137 4 61 -21 205 -53 314
-17 55 -35 69 -35 26 0 -20 -9 -29 -45 -45 -89 -40 -259 -34 -299 10 -22 25
-29 374 -6 365 90 -38 278 -52 352 -26 44 16 44 16 63 182 3 25 10 70 15 100
21 120 72 490 106 765 41 334 46 536 19 719 -17 114 -55 273 -80 332 -9 23
-13 56 -10 92 2 31 7 104 10 162 3 58 8 134 10 170 21 291 26 352 30 400 17
189 46 527 51 590 3 41 7 91 9 110 10 87 12 496 4 600 -22 285 -92 506 -224
711 -23 36 -48 82 -55 103 -7 21 -26 53 -43 72 l-30 35 -51 -49 c-55 -54 -135
-106 -177 -117 -26 -6 -27 -5 -38 57 -10 61 -41 428 -41 496 0 17 -3 32 -7 32
-5 -1 -37 -37 -73 -81z"/>
<path d="M5926 13035 c-76 -27 -119 -77 -102 -120 6 -17 8 -17 29 3 34 32 102
52 177 52 77 0 121 -12 168 -47 29 -22 33 -22 39 -7 16 43 -38 102 -116 124
-51 14 -149 12 -195 -5z"/>
<path d="M5450 12591 c-11 -8 -5 -11 26 -11 86 0 186 -47 218 -101 23 -39 20
-101 -5 -133 -66 -85 -268 -119 -411 -71 -59 21 -125 77 -133 114 l-6 29 -87
-50 c-48 -28 -93 -58 -99 -66 -8 -9 -13 -44 -13 -83 0 -81 -6 -75 206 -198
177 -102 208 -114 257 -108 35 5 320 160 485 264 l52 33 0 79 c0 94 20 75
-218 211 -128 73 -172 94 -210 97 -26 2 -54 -1 -62 -6z"/>
<path d="M5300 12520 c-129 -44 -134 -137 -11 -193 62 -28 205 -30 273 -4 51
20 98 67 98 97 0 34 -56 86 -111 103 -69 23 -180 21 -249 -3z m5 -101 c24 -14
60 -23 105 -27 71 -5 93 -20 69 -48 -18 -21 -112 -18 -159 6 -39 20 -70 54
-70 77 0 18 13 16 55 -8z m260 -44 c0 -14 -8 -21 -27 -23 -22 -3 -28 1 -28 16
0 25 10 33 35 30 12 -2 20 -10 20 -23z"/>
<path d="M5945 12148 c-16 -6 -40 -20 -53 -31 -69 -64 49 -143 182 -123 84 13
138 72 104 113 -37 45 -159 67 -233 41z m5 -83 c14 -8 44 -14 68 -15 45 0 68
-23 41 -41 -35 -24 -139 15 -147 55 -4 19 5 20 38 1z m180 -30 c0 -9 -9 -15
-25 -15 -24 0 -32 10 -18 23 12 13 43 7 43 -8z"/>
<path d="M2586 11125 c-71 -41 -136 -75 -144 -75 -9 0 -39 14 -69 30 -30 17
-67 30 -85 29 -23 0 -91 -34 -228 -114 l-195 -113 0 -42 0 -42 275 -159 c156
-90 286 -159 300 -159 14 0 176 88 375 203 l350 203 0 42 0 43 -200 115 c-115
66 -210 114 -225 114 -14 -1 -83 -34 -154 -75z m-83 -209 c100 -58 191 -112
202 -120 20 -16 20 -16 -2 -35 -42 -35 -239 -141 -264 -141 -35 0 -431 229
-427 248 5 23 238 152 276 152 23 0 85 -30 215 -104z"/>
<path d="M1788 9687 c-35 -18 -44 -28 -46 -53 -2 -17 3 -35 10 -41 40 -33 852
-493 868 -493 12 0 39 9 60 20 35 18 40 25 40 55 0 25 -6 38 -22 48 -121 74
-828 475 -845 479 -14 4 -40 -3 -65 -15z"/>
<path d="M5110 9531 c0 -78 4 -121 11 -121 10 0 199 108 199 115 0 2 -37 25
-82 51 -46 26 -93 54 -105 62 l-23 14 0 -121z"/>
<path d="M5345 9359 c-66 -38 -135 -72 -152 -75 -42 -8 -98 3 -118 22 -13 14
-15 12 -15 -15 0 -22 7 -35 25 -47 25 -16 25 -17 25 -175 0 -88 3 -159 7 -159
5 0 88 46 185 102 l178 102 0 133 c0 132 0 134 25 145 23 10 23 12 7 24 -9 7
-24 13 -32 13 -8 0 -69 -31 -135 -70z"/>
<path d="M4056 9077 c-236 -136 -427 -253 -438 -268 -27 -36 -34 -124 -15
-172 9 -20 21 -37 27 -37 6 0 57 27 112 60 56 33 109 60 117 60 27 0 281 -154
281 -171 0 -10 -36 -36 -95 -69 -52 -29 -97 -56 -100 -60 -2 -4 33 -28 79 -53
l83 -47 184 108 184 107 5 62 c5 62 6 63 53 93 70 44 65 81 -16 125 l-37 19
-2 243 -3 242 -419 -242z m188 -153 c9 -3 16 -11 16 -18 -1 -12 -281 -176
-303 -176 -7 0 -22 6 -32 14 -22 16 -23 15 154 118 115 66 135 74 165 62z
m110 -70 c9 -3 16 -12 16 -19 0 -14 -274 -175 -300 -175 -17 0 -47 26 -39 34
13 13 286 166 295 166 7 0 19 -3 28 -6z m122 -78 c10 -8 17 -16 14 -19 -23
-21 -291 -167 -307 -167 -11 0 -26 7 -33 15 -10 12 -6 18 26 37 188 112 251
147 265 147 8 1 24 -5 35 -13z"/>
<path d="M5700 9275 c0 -28 5 -30 38 -12 l23 13 -26 12 c-35 16 -35 16 -35
-13z"/>
<path d="M2590 8573 c-8 -3 -54 -28 -102 -55 -82 -46 -88 -52 -88 -82 0 -25 7
-36 32 -51 300 -177 465 -265 496 -265 22 0 61 14 101 37 106 58 121 71 121
103 0 27 -10 35 -117 98 -344 203 -403 231 -443 215z m60 -48 c7 -9 11 -17 9
-19 -2 -1 -32 -19 -65 -39 -65 -39 -104 -46 -123 -23 -9 11 2 21 56 54 73 44
103 51 123 27z m104 -58 c18 -13 17 -15 -10 -34 -64 -45 -126 -72 -148 -64
-35 13 -24 31 44 72 71 42 87 46 114 26z m97 -57 c10 -6 19 -15 19 -20 0 -5
-32 -28 -71 -51 -61 -35 -75 -40 -95 -30 -13 6 -24 15 -24 20 0 10 127 90 143
91 5 0 17 -5 28 -10z m127 -78 c3 -11 -128 -92 -150 -92 -8 0 -22 6 -32 13
-18 13 -17 15 10 34 64 45 126 72 147 64 12 -4 23 -13 25 -19z m101 -56 c10
-11 -2 -22 -60 -55 -39 -23 -79 -41 -89 -41 -20 0 -50 31 -35 37 6 2 35 19 65
38 58 37 100 44 119 21z"/>
<path d="M3222 8429 c-34 -17 -60 -34 -57 -39 3 -5 58 -39 123 -76 64 -36 121
-69 126 -72 4 -2 1 7 -8 20 -9 14 -20 56 -25 93 -6 53 -13 72 -31 87 -31 25
-57 23 -128 -13z"/>
<path d="M14550 6876 c0 -44 0 -44 -67 -83 l-68 -39 -3 -305 -2 -305 -115 -67
-115 -66 0 299 c0 165 -3 300 -7 300 -4 0 -51 -25 -105 -56 l-98 -56 -2 -305
-3 -306 -230 -133 -230 -133 -3 299 c-1 165 -5 300 -8 300 -3 0 -190 -106
-415 -236 l-409 -236 0 -39 c0 -22 3 -39 6 -39 3 0 52 26 107 58 l102 57 105
0 c111 0 146 -11 190 -57 26 -28 26 -78 0 -111 -20 -25 -278 -180 -364 -218
-100 -44 -248 -32 -309 25 l-27 25 0 -22 c0 -53 77 -106 153 -107 l38 0 -3
-92 -3 -92 -250 -144 c-137 -79 -374 -216 -525 -303 l-275 -159 -3 300 c-1
165 -4 300 -7 300 -6 0 -638 -364 -687 -396 l-37 -24 -3 -104 -3 -104 -58 34
c-31 18 -91 52 -132 75 l-75 41 0 -45 0 -44 218 -126 c119 -68 233 -133 252
-143 43 -22 178 -31 235 -15 52 14 3693 2114 3723 2147 19 21 22 36 22 99 0
68 -3 78 -27 104 -16 17 -111 78 -213 136 -102 59 -204 118 -227 131 l-43 25
0 -45z"/>
<path d="M4581 5590 c-80 -38 -192 -148 -249 -245 -66 -113 -96 -213 -96 -325
-1 -161 7 -170 465 -476 378 -253 669 -418 837 -474 52 -17 96 -29 98 -27 3 3
-17 18 -44 35 -73 45 -97 100 -96 217 1 114 34 218 103 331 57 93 163 197 236
234 71 35 162 39 211 11 26 -15 40 -19 47 -12 23 23 -105 120 -313 239 -149
85 -599 316 -833 428 -232 110 -258 115 -366 64z"/>
<path d="M7046 3789 c-17 -20 -26 -43 -26 -65 0 -37 24 -57 135 -112 27 -14
407 -232 844 -484 770 -445 798 -460 968 -524 117 -44 178 -63 185 -56 12 12
-10 33 -162 157 -101 82 -213 149 -925 560 -445 257 -817 473 -825 480 -30 26
-127 75 -147 75 -12 0 -33 -14 -47 -31z"/>
</g>
</svg>
