<?xml version="1.0" standalone="no"?>
<!DOCTYPE svg PUBLIC "-//W3C//DTD SVG 20010904//EN"
 "http://www.w3.org/TR/2001/REC-SVG-20010904/DTD/svg10.dtd">
<svg version="1.0" xmlns="http://www.w3.org/2000/svg"
 width="772.000000pt" height="772.000000pt" viewBox="0 0 772.000000 772.000000"
 preserveAspectRatio="xMidYMid meet">
<metadata>
Created by potrace 1.11, written by Peter Selinger 2001-2013
</metadata>
<g transform="translate(0.000000,772.000000) scale(0.100000,-0.100000)"
fill="#000000" stroke="none">
<path d="M3733 6677 l-133 -20 0 -59 0 -58 70 0 70 0 0 -250 0 -250 80 0 80 0
0 330 c0 308 -1 330 -17 329 -10 -1 -78 -11 -150 -22z"/>
<path d="M3255 5831 c-135 -33 -182 -135 -173 -378 4 -110 7 -127 34 -179 24
-49 38 -63 83 -86 131 -69 290 -10 330 121 17 60 14 328 -5 384 -35 104 -156
165 -269 138z m104 -147 c19 -24 21 -40 21 -180 0 -166 -7 -198 -44 -216 -35
-15 -72 10 -85 59 -14 49 -14 257 -1 305 18 62 73 78 109 32z"/>
<path d="M4263 5797 l-133 -21 0 -58 0 -58 70 0 70 0 0 -250 0 -250 80 0 80 0
0 330 c0 308 -1 330 -17 329 -10 -1 -78 -11 -150 -22z"/>
<path d="M1285 5784 c-49 -7 -109 -15 -132 -19 l-43 -6 0 -1791 0 -1790 23 5
c12 3 101 14 197 24 243 24 797 24 989 0 511 -65 824 -201 1071 -464 92 -99
182 -227 242 -347 45 -90 102 -233 113 -284 l7 -34 -25 22 c-14 12 -23 28 -21
34 3 7 -20 51 -49 98 -225 357 -523 614 -833 717 -210 70 -551 100 -913 82
-318 -16 -740 -66 -978 -116 l-63 -13 0 1695 0 1695 -32 -5 c-18 -4 -97 -16
-175 -28 l-143 -22 0 -1832 0 -1833 78 24 c336 106 821 205 1197 246 184 20
642 17 785 -5 336 -52 592 -162 823 -355 104 -87 277 -285 277 -318 0 -3 -33
26 -73 65 -237 234 -576 384 -1012 448 -167 24 -637 24 -850 -1 -442 -51 -929
-167 -1298 -309 l-67 -26 0 1693 c0 931 -2 1695 -5 1698 -3 2 -87 -7 -187 -22
l-183 -25 -3 -1828 -2 -1827 37 16 c622 272 1234 438 1863 506 175 19 578 16
730 -5 463 -65 811 -215 1068 -461 l83 -80 -7 45 c-25 163 -107 406 -187 551
-187 341 -455 565 -823 687 -291 96 -585 138 -1041 148 l-283 6 0 1678 0 1679
-32 -1 c-18 -1 -73 -7 -123 -15z"/>
<path d="M6270 4121 l0 -1678 -277 -6 c-478 -10 -813 -62 -1109 -172 -397
-148 -688 -448 -848 -878 -34 -90 -75 -246 -91 -342 l-6 -40 78 77 c250 245
608 400 1073 465 152 21 556 24 730 5 629 -68 1235 -233 1863 -506 l37 -16 -2
1827 -3 1828 -183 25 c-100 15 -184 24 -187 22 -3 -3 -5 -767 -5 -1698 l0
-1693 -67 26 c-369 142 -856 258 -1298 309 -213 25 -683 25 -850 1 -238 -35
-454 -98 -630 -182 -154 -74 -333 -203 -422 -303 -41 -47 -42 -34 -1 25 123
180 322 350 536 457 167 84 313 129 532 163 143 22 600 25 785 5 373 -41 767
-120 1143 -230 l132 -39 0 1832 0 1832 -142 22 c-79 12 -158 24 -175 28 l-33
5 0 -1695 0 -1695 -62 13 c-398 83 -1044 138 -1379 116 -494 -31 -748 -133
-1037 -415 -151 -147 -364 -432 -366 -492 -1 -6 -9 -19 -20 -29 -18 -18 -18
-18 -11 16 11 52 68 195 113 285 61 121 154 254 244 350 248 262 560 396 1069
461 192 24 746 24 989 0 96 -10 185 -21 198 -24 l22 -5 0 1791 c0 985 -1 1791
-3 1791 -2 0 -68 9 -147 20 -79 11 -154 20 -167 20 l-23 0 0 -1679z"/>
<path d="M2669 4932 c-45 -23 -59 -37 -83 -86 -27 -52 -30 -69 -34 -179 -10
-271 55 -379 228 -381 89 -1 153 31 195 99 30 48 30 49 33 218 4 186 -4 227
-56 289 -61 72 -187 90 -283 40z m152 -111 c23 -19 24 -24 27 -188 3 -160 2
-170 -18 -196 -37 -46 -92 -31 -110 31 -13 48 -13 256 0 304 10 36 41 68 66
68 7 0 22 -9 35 -19z"/>
<path d="M3765 4915 c-77 -13 -141 -24 -142 -24 -2 -1 -3 -26 -3 -56 l0 -55
75 0 75 0 0 -250 0 -250 80 0 80 0 0 330 c0 258 -3 330 -12 329 -7 -1 -76 -11
-153 -24z"/>
<path d="M4830 4916 l-135 -22 -3 -57 -3 -57 71 0 70 0 0 -250 0 -250 80 0 80
0 0 330 c0 258 -3 330 -12 329 -7 -1 -74 -11 -148 -23z"/>
<path d="M3280 4071 c-85 -18 -140 -70 -166 -157 -12 -43 -15 -89 -12 -202 3
-135 5 -152 29 -197 38 -74 92 -108 180 -113 126 -7 202 43 235 154 25 86 16
343 -13 399 -48 91 -149 137 -253 116z m75 -127 c36 -14 45 -57 45 -209 0
-110 -4 -153 -15 -175 -28 -54 -87 -51 -111 6 -17 40 -20 288 -4 331 17 45 47
61 85 47z"/>
<path d="M5405 4076 c-5 -2 -22 -7 -37 -10 -38 -8 -95 -61 -121 -110 -18 -35
-22 -62 -25 -182 -6 -222 20 -298 121 -349 100 -50 237 -21 291 62 39 60 48
116 44 280 -3 120 -7 155 -22 183 -23 45 -63 88 -98 106 -27 14 -133 28 -153
20z m91 -147 c16 -18 19 -40 22 -162 4 -154 -1 -199 -24 -222 -22 -22 -68 -19
-90 6 -17 19 -19 38 -19 189 0 151 2 170 19 189 24 27 68 27 92 0z"/>
<path d="M4420 4046 l-135 -22 -3 -57 -3 -57 71 0 70 0 0 -250 0 -250 80 0 80
0 0 330 c0 258 -3 330 -12 329 -7 -1 -74 -11 -148 -23z"/>
<path d="M2173 4037 l-133 -20 0 -59 0 -58 70 0 70 0 0 -250 0 -250 80 0 80 0
0 330 c0 308 -1 330 -17 329 -10 -1 -78 -11 -150 -22z"/>
<path d="M4915 3197 c-61 -20 -93 -45 -123 -96 -26 -44 -27 -53 -30 -210 -4
-185 4 -229 51 -286 80 -97 252 -101 339 -9 48 51 61 98 66 239 7 201 -26 298
-118 345 -51 26 -134 33 -185 17z m105 -127 c11 -6 24 -27 30 -48 13 -48 13
-256 -1 -305 -13 -49 -50 -74 -85 -59 -37 18 -44 50 -44 216 0 140 2 156 21
180 22 27 48 33 79 16z"/>
<path d="M2745 3177 c-44 -20 -102 -89 -116 -139 -17 -57 -17 -309 0 -366 15
-54 81 -127 128 -143 19 -6 67 -9 107 -7 96 4 143 34 183 115 27 56 28 62 28
218 0 154 -1 162 -28 216 -18 38 -41 66 -69 85 -36 25 -52 29 -122 32 -52 1
-92 -3 -111 -11z m149 -140 c18 -25 21 -45 24 -156 5 -178 -17 -246 -76 -239
-42 5 -61 43 -68 139 -9 121 3 232 28 264 26 33 64 30 92 -8z"/>
<path d="M3755 3165 c-77 -13 -141 -24 -142 -24 -2 -1 -3 -26 -3 -56 l0 -55
75 0 75 0 0 -250 0 -250 80 0 80 0 0 330 c0 258 -3 330 -12 329 -7 -1 -76 -11
-153 -24z"/>
</g>
</svg>
